<svg xmlns="http://www.w3.org/2000/svg" width="28" height="40.753" viewBox="0 0 28 40.753"><g transform="translate(-1379 -117)"><g transform="translate(1382 117)" fill="none"><path d="M11,0A11,11,0,1,1,0,11,11,11,0,0,1,11,0Z" stroke="none"/><path d="M 11 1 C 5.485979080200195 1 1 5.485979080200195 1 11 C 1 16.51401901245117 5.485979080200195 21 11 21 C 16.51401901245117 21 21 16.51401901245117 21 11 C 21 5.485979080200195 16.51401901245117 1 11 1 M 11 0 C 17.07513046264648 0 22 4.924869537353516 22 11 C 22 17.07513046264648 17.07513046264648 22 11 22 C 4.924869537353516 22 0 17.07513046264648 0 11 C 0 4.924869537353516 4.924869537353516 0 11 0 Z" stroke="none" fill="#523468"/></g><g transform="translate(34 -2)"><g transform="translate(-67 4)"><g transform="translate(1412 125)" fill="#523468" stroke="#523468" stroke-width="1"><circle cx="14" cy="14" r="14" stroke="none"/><circle cx="14" cy="14" r="13.5" fill="none"/></g><path d="M1416.431,146.466l-2.25,4.262" fill="none" stroke="#523468" stroke-linecap="round" stroke-width="2"/><path d="M1426.14,149.544v5.209" fill="none" stroke="#523468" stroke-linecap="round" stroke-width="2"/><path d="M1434.19,145.282l3.67,5.209" fill="none" stroke="#523468" stroke-linecap="round" stroke-width="2"/><path d="M11-3C17.075-3,21,.791,21,3S16.5,6,11,6,1,5.209,1,3,4.925-3,11-3Z" transform="translate(1415 129)" fill="#c6bed7"/></g></g></g></svg>